<svg width="425" height="23" viewBox="0 0 425 23" fill="none" xmlns="http://www.w3.org/2000/svg">
<path d="M15.136 21.696V11.904H2.656V21.696H-2.14577e-06V0.352001H2.656V9.536H15.136V0.352001H17.792V21.696H15.136ZM32.5092 22.08C30.9306 22.08 29.4906 21.8027 28.1892 21.248C26.8879 20.6933 25.7679 19.9253 24.8292 18.944C23.9119 17.9413 23.1972 16.768 22.6852 15.424C22.1732 14.08 21.9172 12.6187 21.9172 11.04C21.9172 9.46134 22.1732 8 22.6852 6.656C23.1972 5.312 23.9119 4.14933 24.8292 3.168C25.7679 2.16533 26.8879 1.38667 28.1892 0.832003C29.4906 0.277335 30.9306 1.90735e-06 32.5092 1.90735e-06C34.0879 1.90735e-06 35.5279 0.277335 36.8292 0.832003C38.1306 1.38667 39.2399 2.16533 40.1572 3.168C41.0959 4.14933 41.8212 5.312 42.3332 6.656C42.8452 8 43.1012 9.46134 43.1012 11.04C43.1012 12.6187 42.8452 14.08 42.3332 15.424C41.8212 16.768 41.0959 17.9413 40.1572 18.944C39.2399 19.9253 38.1306 20.6933 36.8292 21.248C35.5279 21.8027 34.0879 22.08 32.5092 22.08ZM32.5092 19.712C33.7039 19.712 34.7812 19.4987 35.7412 19.072C36.7012 18.624 37.5226 18.016 38.2052 17.248C38.8879 16.4587 39.4106 15.5413 39.7732 14.496C40.1572 13.4293 40.3492 12.2773 40.3492 11.04C40.3492 9.80267 40.1572 8.65067 39.7732 7.584C39.4106 6.51734 38.8879 5.6 38.2052 4.832C37.5226 4.064 36.7012 3.46667 35.7412 3.04C34.7812 2.592 33.7039 2.368 32.5092 2.368C31.3146 2.368 30.2266 2.592 29.2452 3.04C28.2852 3.46667 27.4639 4.064 26.7812 4.832C26.0986 5.6 25.5759 6.51734 25.2132 7.584C24.8506 8.65067 24.6692 9.80267 24.6692 11.04C24.6692 12.2773 24.8506 13.4293 25.2132 14.496C25.5759 15.5413 26.0986 16.4587 26.7812 17.248C27.4639 18.016 28.2852 18.624 29.2452 19.072C30.2266 19.4987 31.3146 19.712 32.5092 19.712ZM55.954 22.08C54.5033 22.08 53.234 21.8773 52.146 21.472C51.058 21.0453 50.1513 20.4587 49.426 19.712C48.7007 18.9653 48.1567 18.0587 47.794 16.992C47.4313 15.9253 47.25 14.7307 47.25 13.408V0.352001H49.906V13.344C49.906 15.3067 50.418 16.864 51.442 18.016C52.466 19.1467 53.97 19.712 55.954 19.712C57.938 19.712 59.442 19.1467 60.466 18.016C61.49 16.864 62.002 15.3067 62.002 13.344V0.352001H64.658V13.376C64.658 14.6987 64.4767 15.904 64.114 16.992C63.7513 18.0587 63.2073 18.976 62.482 19.744C61.7567 20.4907 60.85 21.0667 59.762 21.472C58.674 21.8773 57.4047 22.08 55.954 22.08ZM76.5682 22.08C74.6909 22.08 73.0802 21.7707 71.7362 21.152C70.3922 20.512 69.2722 19.6907 68.3762 18.688L69.9442 16.672C70.2856 17.056 70.6909 17.44 71.1602 17.824C71.6296 18.1867 72.1416 18.5067 72.6962 18.784C73.2722 19.0613 73.8909 19.2853 74.5522 19.456C75.2136 19.6267 75.9176 19.712 76.6642 19.712C77.6242 19.712 78.4242 19.5947 79.0642 19.36C79.7042 19.1253 80.2162 18.8373 80.6002 18.496C80.9842 18.1333 81.2616 17.7387 81.4322 17.312C81.6029 16.864 81.6882 16.4373 81.6882 16.032C81.6882 15.3493 81.5069 14.784 81.1442 14.336C80.7816 13.888 80.3016 13.5147 79.7042 13.216C79.1282 12.896 78.4562 12.64 77.6882 12.448C76.9416 12.2347 76.1629 12.0213 75.3522 11.808C74.5629 11.5733 73.7842 11.3173 73.0162 11.04C72.2696 10.7627 71.5976 10.4107 71.0002 9.984C70.4242 9.536 69.9549 8.992 69.5922 8.352C69.2296 7.712 69.0482 6.912 69.0482 5.952C69.0482 5.07734 69.2296 4.27733 69.5922 3.552C69.9762 2.82667 70.4882 2.208 71.1282 1.696C71.7896 1.16267 72.5682 0.757335 73.4642 0.480001C74.3602 0.181335 75.3309 0.0320015 76.3762 0.0320015C78.0189 0.0320015 79.4696 0.288001 80.7282 0.800001C81.9869 1.312 83.0642 2.048 83.9602 3.008L82.3602 4.96C81.5496 4.064 80.6109 3.41334 79.5442 3.008C78.4776 2.60267 77.3576 2.4 76.1842 2.4C74.9042 2.4 73.8482 2.70934 73.0162 3.328C72.2056 3.94667 71.8002 4.768 71.8002 5.792C71.8002 6.38934 71.9816 6.88 72.3442 7.264C72.7069 7.648 73.1762 7.97867 73.7522 8.256C74.3496 8.53334 75.0216 8.77867 75.7682 8.992C76.5362 9.184 77.3149 9.39734 78.1042 9.632C78.9149 9.84534 79.6936 10.1013 80.4402 10.4C81.2082 10.6987 81.8802 11.0827 82.4562 11.552C83.0536 12.0213 83.5336 12.5973 83.8962 13.28C84.2589 13.9627 84.4402 14.8053 84.4402 15.808C84.4402 16.576 84.3016 17.344 84.0242 18.112C83.7469 18.8587 83.2882 19.5307 82.6482 20.128C82.0296 20.704 81.2189 21.1733 80.2162 21.536C79.2136 21.8987 77.9976 22.08 76.5682 22.08ZM88.4062 21.696V0.352001H91.0622V21.696H88.4062ZM111.166 21.696L98.7185 4.672V21.696H96.0625V0.352001H98.7825L111.07 17.024V0.352001H113.726V21.696H111.166ZM128.831 22.112C127.316 22.112 125.887 21.8453 124.543 21.312C123.22 20.7787 122.057 20.032 121.055 19.072C120.073 18.0907 119.295 16.928 118.719 15.584C118.143 14.2187 117.855 12.704 117.855 11.04C117.855 9.376 118.143 7.872 118.719 6.528C119.295 5.16267 120.073 4 121.055 3.04C122.057 2.08 123.22 1.33334 124.543 0.800001C125.887 0.266668 127.316 1.90735e-06 128.831 1.90735e-06C130.729 1.90735e-06 132.34 0.373336 133.663 1.12C135.007 1.86667 136.159 2.82667 137.119 4L135.007 5.312C134.324 4.43734 133.439 3.73334 132.351 3.2C131.284 2.64534 130.111 2.368 128.831 2.368C127.657 2.368 126.569 2.58134 125.567 3.008C124.564 3.43467 123.689 4.032 122.943 4.8C122.217 5.568 121.641 6.48534 121.215 7.552C120.809 8.59734 120.607 9.76 120.607 11.04C120.607 12.2987 120.809 13.4613 121.215 14.528C121.641 15.5947 122.217 16.512 122.943 17.28C123.689 18.048 124.564 18.656 125.567 19.104C126.569 19.5307 127.657 19.744 128.831 19.744C129.471 19.744 130.079 19.68 130.655 19.552C131.231 19.4027 131.764 19.2213 132.255 19.008C132.745 18.7733 133.183 18.5173 133.567 18.24C133.972 17.9627 134.303 17.696 134.559 17.44V13.088H127.231V10.72H137.215V18.432C136.212 19.5413 134.996 20.4373 133.567 21.12C132.159 21.7813 130.58 22.112 128.831 22.112ZM162.133 21.696L156.693 13.216H152.437V21.696H149.781V0.352001H158.357C159.339 0.352001 160.235 0.501335 161.045 0.800001C161.856 1.09867 162.56 1.536 163.157 2.112C163.755 2.66667 164.213 3.33867 164.533 4.128C164.875 4.91734 165.045 5.80267 165.045 6.784C165.045 7.744 164.896 8.59734 164.597 9.344C164.299 10.0907 163.893 10.72 163.381 11.232C162.869 11.744 162.272 12.1493 161.589 12.448C160.928 12.7467 160.235 12.928 159.509 12.992L165.269 21.696H162.133ZM158.037 10.88C159.317 10.88 160.341 10.5067 161.109 9.76C161.899 8.992 162.293 8 162.293 6.784C162.293 5.568 161.899 4.58667 161.109 3.84C160.341 3.09333 159.317 2.72 158.037 2.72H152.437V10.88H158.037ZM169.25 21.696V0.352001H171.906V21.696H169.25ZM187.018 22.112C185.504 22.112 184.074 21.8453 182.73 21.312C181.408 20.7787 180.245 20.032 179.242 19.072C178.261 18.0907 177.482 16.928 176.906 15.584C176.33 14.2187 176.042 12.704 176.042 11.04C176.042 9.376 176.33 7.872 176.906 6.528C177.482 5.16267 178.261 4 179.242 3.04C180.245 2.08 181.408 1.33334 182.73 0.800001C184.074 0.266668 185.504 1.90735e-06 187.018 1.90735e-06C188.917 1.90735e-06 190.528 0.373336 191.85 1.12C193.194 1.86667 194.346 2.82667 195.306 4L193.194 5.312C192.512 4.43734 191.626 3.73334 190.538 3.2C189.472 2.64534 188.298 2.368 187.018 2.368C185.845 2.368 184.757 2.58134 183.754 3.008C182.752 3.43467 181.877 4.032 181.13 4.8C180.405 5.568 179.829 6.48534 179.402 7.552C178.997 8.59734 178.794 9.76 178.794 11.04C178.794 12.2987 178.997 13.4613 179.402 14.528C179.829 15.5947 180.405 16.512 181.13 17.28C181.877 18.048 182.752 18.656 183.754 19.104C184.757 19.5307 185.845 19.744 187.018 19.744C187.658 19.744 188.266 19.68 188.842 19.552C189.418 19.4027 189.952 19.2213 190.442 19.008C190.933 18.7733 191.37 18.5173 191.754 18.24C192.16 17.9627 192.49 17.696 192.746 17.44V13.088H185.418V10.72H195.402V18.432C194.4 19.5413 193.184 20.4373 191.754 21.12C190.346 21.7813 188.768 22.112 187.018 22.112ZM214.855 21.696V11.904H202.375V21.696H199.719V0.352001H202.375V9.536H214.855V0.352001H217.511V21.696H214.855ZM227.78 21.696V2.72H221.028V0.352001H237.22V2.72H230.436V21.696H227.78ZM247.662 22.08C245.785 22.08 244.174 21.7707 242.83 21.152C241.486 20.512 240.366 19.6907 239.47 18.688L241.038 16.672C241.379 17.056 241.785 17.44 242.254 17.824C242.723 18.1867 243.235 18.5067 243.79 18.784C244.366 19.0613 244.985 19.2853 245.646 19.456C246.307 19.6267 247.011 19.712 247.758 19.712C248.718 19.712 249.518 19.5947 250.158 19.36C250.798 19.1253 251.31 18.8373 251.694 18.496C252.078 18.1333 252.355 17.7387 252.526 17.312C252.697 16.864 252.782 16.4373 252.782 16.032C252.782 15.3493 252.601 14.784 252.238 14.336C251.875 13.888 251.395 13.5147 250.798 13.216C250.222 12.896 249.55 12.64 248.782 12.448C248.035 12.2347 247.257 12.0213 246.446 11.808C245.657 11.5733 244.878 11.3173 244.11 11.04C243.363 10.7627 242.691 10.4107 242.094 9.984C241.518 9.536 241.049 8.992 240.686 8.352C240.323 7.712 240.142 6.912 240.142 5.952C240.142 5.07734 240.323 4.27733 240.686 3.552C241.07 2.82667 241.582 2.208 242.222 1.696C242.883 1.16267 243.662 0.757335 244.558 0.480001C245.454 0.181335 246.425 0.0320015 247.47 0.0320015C249.113 0.0320015 250.563 0.288001 251.822 0.800001C253.081 1.312 254.158 2.048 255.054 3.008L253.454 4.96C252.643 4.064 251.705 3.41334 250.638 3.008C249.571 2.60267 248.451 2.4 247.278 2.4C245.998 2.4 244.942 2.70934 244.11 3.328C243.299 3.94667 242.894 4.768 242.894 5.792C242.894 6.38934 243.075 6.88 243.438 7.264C243.801 7.648 244.27 7.97867 244.846 8.256C245.443 8.53334 246.115 8.77867 246.862 8.992C247.63 9.184 248.409 9.39734 249.198 9.632C250.009 9.84534 250.787 10.1013 251.534 10.4C252.302 10.6987 252.974 11.0827 253.55 11.552C254.147 12.0213 254.627 12.5973 254.99 13.28C255.353 13.9627 255.534 14.8053 255.534 15.808C255.534 16.576 255.395 17.344 255.118 18.112C254.841 18.8587 254.382 19.5307 253.742 20.128C253.123 20.704 252.313 21.1733 251.31 21.536C250.307 21.8987 249.091 22.08 247.662 22.08ZM267.75 21.696V0.352001H270.406V21.696H267.75ZM290.51 21.696L278.062 4.672V21.696H275.406V0.352001H278.126L290.414 17.024V0.352001H293.07V21.696H290.51ZM298.062 21.696V0.352001H300.718V21.696H298.062ZM310.999 21.696V2.72H304.247V0.352001H320.439V2.72H313.655V21.696H310.999ZM323.969 21.696V0.352001H326.625V21.696H323.969ZM336.905 21.696V2.72H330.153V0.352001H346.345V2.72H339.561V21.696H336.905ZM365.107 21.696L363.219 16.96H352.595L350.707 21.696H347.667L356.243 0.352001H359.539L368.147 21.696H365.107ZM357.907 3.104L353.363 14.592H362.419L357.907 3.104ZM376.217 21.696V2.72H369.465V0.352001H385.657V2.72H378.873V21.696H376.217ZM395.555 21.696L386.979 0.352001H390.019L397.219 18.784L404.419 0.352001H407.459L398.851 21.696H395.555ZM410.25 21.696V0.352001H424.234V2.72H412.906V9.6H424.01V11.968H412.906V19.328H424.234V21.696H410.25Z" fill="#F5F5F5"/>
</svg>
